<svg width="400" height="144" version="1.1" xmlns="http://www.w3.org/2000/svg" desc="Created with imagetracer.js version 1.2.6" ><path fill="rgb(91,47,16)" stroke="rgb(91,47,16)" stroke-width="1" opacity="0.15294117647058825" d="M 111 31 L 113 31.5 L 113 44.5 L 113 46.5 L 113 59.5 L 110 60 L 111 56.5 L 110 53.5 L 111 51.5 L 110 48.5 L 111 45.5 L 111 43.5 L 111 31 Z " /><path fill="rgb(91,47,16)" stroke="rgb(91,47,16)" stroke-width="1" opacity="0.15294117647058825" d="M 308.5 33 L 310 33.5 L 301 40.5 L 296 51.5 L 296 53.5 L 297 63.5 L 301 71 L 318 82.5 L 317.5 84 L 282.5 84 L 282.5 83 L 315 82.5 L 298 70.5 L 293 59.5 L 293 57.5 L 294 55.5 L 293 53.5 Q 294.8 43.3 301.5 38 L 308.5 33 Z " /><path fill="rgb(91,47,16)" stroke="rgb(91,47,16)" stroke-width="1" opacity="0.15294117647058825" d="M 68.5 34 L 100 34.5 L 67.5 36 Q 53.8 40.3 46 50.5 L 41 58.5 L 39 66.5 L 39 77.5 L 41 82.5 Q 38.5 84 42 85.5 Q 44.7 95.3 52.5 100 L 59.5 105 L 68.5 108 L 73.5 109 L 100 109.5 L 68.5 110 L 51 103 Q 52.1 100.3 49.5 101 Q 42.1 94.9 38 85.5 Q 40.5 84 37 82.5 L 35 75.5 L 35 73.5 L 36 70.5 L 35 68.5 Q 37.6 65.6 37 59.5 L 43 49 Q 45.7 50.1 45 47.5 L 54.5 39 L 68.5 34 Z " /><path fill="rgb(91,47,16)" stroke="rgb(91,47,16)" stroke-width="1" opacity="0.15294117647058825" d="M 145.5 34 L 189 34.5 L 147.5 35 L 141.5 37 L 133 43 Q 128.8 48.5 129 59.5 L 133 69 L 150 81.5 Q 150.8 86.3 147.5 87 L 149 84.5 L 146.5 79 Q 136.9 75.1 131 67.5 L 128 62.5 Q 129.3 57.7 127 56.5 L 130 45.5 L 135.5 39 L 145.5 34 Z " /><path fill="rgb(91,47,16)" stroke="rgb(91,47,16)" stroke-width="1" opacity="0.15294117647058825" d="M 204.5 34 L 209 34.5 L 204.5 35 L 204.5 34 Z " /><path fill="rgb(91,47,16)" stroke="rgb(91,47,16)" stroke-width="1" opacity="0.15294117647058825" d="M 211.5 34 L 214 34.5 L 211.5 35 L 211.5 34 Z " /><path fill="rgb(91,47,16)" stroke="rgb(91,47,16)" stroke-width="1" opacity="0.15294117647058825" d="M 215.5 34 L 221 34.5 L 215.5 35 L 215.5 34 Z " /><path fill="rgb(91,47,16)" stroke="rgb(91,47,16)" stroke-width="1" opacity="0.15294117647058825" d="M 222.5 34 L 225 34.5 L 222.5 35 L 222.5 34 Z " /><path fill="rgb(91,47,16)" stroke="rgb(91,47,16)" stroke-width="1" opacity="0.15294117647058825" d="M 253.5 34 L 257 34.5 L 253.5 35 L 253.5 34 Z " /><path fill="rgb(91,47,16)" stroke="rgb(91,47,16)" stroke-width="1" opacity="0.15294117647058825" d="M 261.5 34 L 264 34.5 L 261.5 35 L 261.5 34 Z " /><path fill="rgb(91,47,16)" stroke="rgb(91,47,16)" stroke-width="1" opacity="0.15294117647058825" d="M 267.5 34 L 271 34.5 L 267.5 35 L 267.5 34 Z " /><path fill="rgb(91,47,16)" stroke="rgb(91,47,16)" stroke-width="1" opacity="0.15294117647058825" d="M 274.5 34 Q 279.9 33.4 280 34.5 L 280 55 Q 276.3 56.4 278 50.5 L 279 47.5 L 278 45.5 L 279 43.5 L 278 40.5 L 279 38.5 L 276.5 35 Q 273.5 35.5 274.5 34 Z " /><path fill="rgb(91,47,16)" stroke="rgb(91,47,16)" stroke-width="1" opacity="0.15294117647058825" d="M 320.5 34 L 366.5 34 L 367 37.5 L 367 39.5 L 367 50.5 L 366 51.5 L 367 55 L 362 55 L 362 53.5 L 361.5 52 L 363 52.5 L 364 50.5 L 362 49.5 L 363.5 45 L 361 44.5 L 364 43.5 L 362.5 41 L 364 40.5 L 361 38.5 L 363 38.5 L 362 35 L 320.5 35 L 320.5 34 Z " /><path fill="rgb(91,47,16)" stroke="rgb(91,47,16)" stroke-width="1" opacity="0.15294117647058825" d="M 334.5 56 L 331 60.5 L 335.5 66 L 349 76.5 L 353 81.5 L 355 89.5 L 354 92.5 L 354 95.5 L 350 103 L 337.5 110 L 300.5 110 L 300.5 109 L 333.5 109 Q 343.8 106.3 349 98.5 L 351 92.5 L 351 86.5 L 346 76 L 328 62.5 Q 327.3 57.8 330.5 57 L 334.5 56 Z " /><path fill="rgb(91,47,16)" stroke="rgb(91,47,16)" stroke-width="1" opacity="0.15294117647058825" d="M 229.5 57 L 230 67.5 L 229 67.5 L 229.5 57 Z " /><path fill="rgb(91,47,16)" stroke="rgb(91,47,16)" stroke-width="1" opacity="0.15294117647058825" d="M 69.5 60 L 76 60.5 L 71.5 61 L 68 63 L 65 68.5 L 65 75.5 L 67 80 L 75 83.5 L 69.5 84 L 64 79.5 L 62 76.5 L 62 74.5 Q 61.5 64.5 67.5 61 L 69.5 60 Z " /><path fill="rgb(91,47,16)" stroke="rgb(91,47,16)" stroke-width="1" opacity="0.15294117647058825" d="M 100.5 60 L 103 60.5 L 100.5 61 L 100.5 60 Z " /><path fill="rgb(91,47,16)" stroke="rgb(91,47,16)" stroke-width="1" opacity="0.15294117647058825" d="M 163 60 L 197 60.5 L 164 61.5 L 164.5 63 L 163 60 Z " /><path fill="rgb(91,47,16)" stroke="rgb(91,47,16)" stroke-width="1" opacity="0.15294117647058825" d="M 240.5 60 L 281 60.5 L 240.5 61 L 240.5 60 Z " /><path fill="rgb(91,47,16)" stroke="rgb(91,47,16)" stroke-width="1" opacity="0.15294117647058825" d="M 345.5 60 L 349 60.5 L 345.5 61 L 345.5 60 Z " /><path fill="rgb(91,47,16)" stroke="rgb(91,47,16)" stroke-width="1" opacity="0.15294117647058825" d="M 350.5 60 L 366 60.5 L 350.5 61 L 350.5 60 Z " /><path fill="rgb(91,47,16)" stroke="rgb(91,47,16)" stroke-width="1" opacity="0.15294117647058825" d="M 166.5 63 L 168.5 66 L 166.5 63 Z " /><path fill="rgb(91,47,16)" stroke="rgb(91,47,16)" stroke-width="1" opacity="0.15294117647058825" d="M 170.5 66 L 171.5 68 L 170.5 66 Z " /><path fill="rgb(91,47,16)" stroke="rgb(91,47,16)" stroke-width="1" opacity="0.15294117647058825" d="M 173.5 68 L 175.5 71 L 173.5 68 Z " /><path fill="rgb(91,47,16)" stroke="rgb(91,47,16)" stroke-width="1" opacity="0.15294117647058825" d="M 259 68 L 261 68.5 L 261 75.5 L 260 75.5 L 259 73.5 L 260 71.5 L 259 68 Z " /><path fill="rgb(91,47,16)" stroke="rgb(91,47,16)" stroke-width="1" opacity="0.15294117647058825" d="M 177.5 71 Q 183.4 73.6 185 80.5 L 184 80.5 L 177.5 71 Z " /><path fill="rgb(91,47,16)" stroke="rgb(91,47,16)" stroke-width="1" opacity="0.15294117647058825" d="M 229.5 76 L 230 86.5 L 229 86.5 L 229.5 76 Z " /><path fill="rgb(91,47,16)" stroke="rgb(91,47,16)" stroke-width="1" opacity="0.15294117647058825" d="M 81.5 83 L 90 83.5 L 81.5 84 L 81.5 83 Z " /><path fill="rgb(91,47,16)" stroke="rgb(91,47,16)" stroke-width="1" opacity="0.15294117647058825" d="M 102.5 83 L 108 83.5 L 102.5 84 L 102.5 83 Z " /><path fill="rgb(91,47,16)" stroke="rgb(91,47,16)" stroke-width="1" opacity="0.15294117647058825" d="M 109.5 83 L 112 83.5 L 109.5 84 L 109.5 83 Z " /><path fill="rgb(91,47,16)" stroke="rgb(91,47,16)" stroke-width="1" opacity="0.15294117647058825" d="M 115.5 83 L 141 83.5 L 115.5 84 L 115.5 83 Z " /><path fill="rgb(91,47,16)" stroke="rgb(91,47,16)" stroke-width="1" opacity="0.15294117647058825" d="M 237.5 83 L 274 83.5 L 237.5 84 L 237.5 83 Z " /><path fill="rgb(91,47,16)" stroke="rgb(91,47,16)" stroke-width="1" opacity="0.15294117647058825" d="M 275.5 83 L 281 83.5 L 275.5 84 L 275.5 83 Z " /><path fill="rgb(91,47,16)" stroke="rgb(91,47,16)" stroke-width="1" opacity="0.15294117647058825" d="M 186.5 85 L 187 94.5 L 186 94.5 L 186.5 85 Z " /><path fill="rgb(91,47,16)" stroke="rgb(91,47,16)" stroke-width="1" opacity="0.15294117647058825" d="M 117 89 L 119 89.5 L 118 90.5 L 118 100.5 L 118 102.5 L 119 104.5 L 118 109 L 164.5 109 L 173.5 105 L 172.5 107 L 165.5 110 L 117.5 110 L 116 106.5 L 116 104.5 Q 114.8 99.8 117 98.5 Q 114.8 97.3 116 92.5 L 117 89 Z " /><path fill="rgb(91,47,16)" stroke="rgb(91,47,16)" stroke-width="1" opacity="0.15294117647058825" d="M 278 89 L 280 89.5 L 280 110 L 275 109.5 L 278 109 L 279 104.5 L 278 100.5 L 279 96.5 L 278 94.5 L 278 92.5 L 278 89 Z " /><path fill="rgb(91,47,16)" stroke="rgb(91,47,16)" stroke-width="1" opacity="0.15294117647058825" d="M 209.5 109 L 213 109.5 L 209.5 110 L 209.5 109 Z " /><path fill="rgb(91,47,16)" stroke="rgb(91,47,16)" stroke-width="1" opacity="0.15294117647058825" d="M 214.5 109 L 218 109.5 L 214.5 110 L 214.5 109 Z " /><path fill="rgb(91,47,16)" stroke="rgb(91,47,16)" stroke-width="1" opacity="0.15294117647058825" d="M 228.5 109 L 231 109.5 L 228.5 110 L 228.5 109 Z " /><path fill="rgb(91,47,16)" stroke="rgb(91,47,16)" stroke-width="1" opacity="0.15294117647058825" d="M 232.5 109 L 236 109.5 L 232.5 110 L 232.5 109 Z " /><path fill="rgb(91,47,16)" stroke="rgb(91,47,16)" stroke-width="1" opacity="0.15294117647058825" d="M 251.5 109 L 254 109.5 L 251.5 110 L 251.5 109 Z " /><path fill="rgb(91,47,16)" stroke="rgb(91,47,16)" stroke-width="1" opacity="0.15294117647058825" d="M 260.5 109 L 263 109.5 L 260.5 110 L 260.5 109 Z " /><path fill="rgb(91,47,16)" stroke="rgb(91,47,16)" stroke-width="1" opacity="0.15294117647058825" d="M 265.5 109 L 272 109.5 L 265.5 110 L 265.5 109 Z " /><path fill="rgb(91,47,16)" stroke="rgb(91,47,16)" stroke-width="1" opacity="0.15294117647058825" d="M 296.5 109 L 299 109.5 L 296.5 110 L 296.5 109 Z " /><path fill="rgb(246,223,166)" stroke="rgb(246,223,166)" stroke-width="1" opacity="0.9882352941176471" d="M 62.5 28 L 104 28.5 L 62.5 29 L 62.5 28 Z " /><path fill="rgb(246,223,166)" stroke="rgb(246,223,166)" stroke-width="1" opacity="0.9882352941176471" d="M 143.5 28 L 196 28 L 196 58.5 L 195 58.5 L 195 29 L 143.5 29 L 143.5 28 Z " /><path fill="rgb(246,223,166)" stroke="rgb(246,223,166)" stroke-width="1" opacity="0.9882352941176471" d="M 200 28 L 260 28.5 L 201 29 L 201 115 L 245.5 115 L 245.5 116 L 200 116 L 200 28 Z " /><path fill="rgb(246,223,166)" stroke="rgb(246,223,166)" stroke-width="1" opacity="0.9882352941176471" d="M 129.5 34 L 127.5 37 L 129.5 34 Z " /><path fill="rgb(246,223,166)" stroke="rgb(246,223,166)" stroke-width="1" opacity="0.9882352941176471" d="M 101.5 36 L 102 55.5 L 100.5 57 L 62.5 57 L 62.5 56 L 101 56 L 101.5 36 Z " /><path fill="rgb(246,223,166)" stroke="rgb(246,223,166)" stroke-width="1" opacity="0.9882352941176471" d="M 38.5 37 L 37.5 39 L 38.5 37 Z " /><path fill="rgb(246,223,166)" stroke="rgb(246,223,166)" stroke-width="1" opacity="0.9882352941176471" d="M 125.5 38 L 123.5 41 L 125.5 38 Z " /><path fill="rgb(246,223,166)" stroke="rgb(246,223,166)" stroke-width="1" opacity="0.9882352941176471" d="M 32.5 42 L 31.5 44 L 32.5 42 Z " /><path fill="rgb(246,223,166)" stroke="rgb(246,223,166)" stroke-width="1" opacity="0.9882352941176471" d="M 28.5 47 L 27.5 49 L 28.5 47 Z " /><path fill="rgb(246,223,166)" stroke="rgb(246,223,166)" stroke-width="1" opacity="0.9882352941176471" d="M 119.5 49 L 120 51.5 L 119 51.5 L 119.5 49 Z " /><path fill="rgb(246,223,166)" stroke="rgb(246,223,166)" stroke-width="1" opacity="0.9882352941176471" d="M 202.5 54 L 203 56.5 L 202 56.5 L 202.5 54 Z " /><path fill="rgb(246,223,166)" stroke="rgb(246,223,166)" stroke-width="1" opacity="0.9882352941176471" d="M 119.5 56 L 120 58.5 L 119 58.5 L 119.5 56 Z " /><path fill="rgb(246,223,166)" stroke="rgb(246,223,166)" stroke-width="1" opacity="0.9882352941176471" d="M 160.5 56 L 193 56.5 L 160.5 57 L 160.5 56 Z " /><path fill="rgb(246,223,166)" stroke="rgb(246,223,166)" stroke-width="1" opacity="0.9882352941176471" d="M 232 56 L 239 56.5 L 232.5 58 L 232 56 Z " /><path fill="rgb(246,223,166)" stroke="rgb(246,223,166)" stroke-width="1" opacity="0.9882352941176471" d="M 243.5 56 L 247 56.5 L 243.5 57 L 243.5 56 Z " /><path fill="rgb(246,223,166)" stroke="rgb(246,223,166)" stroke-width="1" opacity="0.9882352941176471" d="M 266.5 56 L 269 56.5 L 266.5 57 L 266.5 56 Z " /><path fill="rgb(246,223,166)" stroke="rgb(246,223,166)" stroke-width="1" opacity="0.9882352941176471" d="M 158.5 57 L 157.5 59 L 158.5 57 Z " /><path fill="rgb(246,223,166)" stroke="rgb(246,223,166)" stroke-width="1" opacity="0.9882352941176471" d="M 55.5 59 L 51.5 64 L 55.5 59 Z " /><path fill="rgb(246,223,166)" stroke="rgb(246,223,166)" stroke-width="1" opacity="0.9882352941176471" d="M 235.5 59 L 236 64 L 243 64.5 L 236.5 65 Q 233.6 63.6 235.5 59 Z " /><path fill="rgb(246,223,166)" stroke="rgb(246,223,166)" stroke-width="1" opacity="0.9882352941176471" d="M 159.5 63 L 160.5 65 L 159.5 63 Z " /><path fill="rgb(246,223,166)" stroke="rgb(246,223,166)" stroke-width="1" opacity="0.9882352941176471" d="M 246.5 64 L 259 64.5 L 246.5 65 L 246.5 64 Z " /><path fill="rgb(246,223,166)" stroke="rgb(246,223,166)" stroke-width="1" opacity="0.9882352941176471" d="M 162.5 65 L 163.5 67 L 162.5 65 Z " /><path fill="rgb(246,223,166)" stroke="rgb(246,223,166)" stroke-width="1" opacity="0.9882352941176471" d="M 20.5 66 L 21 69.5 L 20 69.5 L 20.5 66 Z " /><path fill="rgb(246,223,166)" stroke="rgb(246,223,166)" stroke-width="1" opacity="0.9882352941176471" d="M 165.5 67 L 166.5 69 L 165.5 67 Z " /><path fill="rgb(246,223,166)" stroke="rgb(246,223,166)" stroke-width="1" opacity="0.9882352941176471" d="M 123.5 68 L 124.5 70 L 123.5 68 Z " /><path fill="rgb(246,223,166)" stroke="rgb(246,223,166)" stroke-width="1" opacity="0.9882352941176471" d="M 126.5 71 L 128.5 74 L 126.5 71 Z " /><path fill="rgb(246,223,166)" stroke="rgb(246,223,166)" stroke-width="1" opacity="0.9882352941176471" d="M 172.5 72 L 177.5 78 L 172.5 72 Z " /><path fill="rgb(246,223,166)" stroke="rgb(246,223,166)" stroke-width="1" opacity="0.9882352941176471" d="M 175.5 72 L 176.5 74 L 175.5 72 Z " /><path fill="rgb(246,223,166)" stroke="rgb(246,223,166)" stroke-width="1" opacity="0.9882352941176471" d="M 20.5 74 L 21 77.5 L 20 77.5 L 20.5 74 Z " /><path fill="rgb(246,223,166)" stroke="rgb(246,223,166)" stroke-width="1" opacity="0.9882352941176471" d="M 130.5 74 L 131.5 76 L 130.5 74 Z " /><path fill="rgb(246,223,166)" stroke="rgb(246,223,166)" stroke-width="1" opacity="0.9882352941176471" d="M 179.5 76 L 180.5 78 L 179.5 76 Z " /><path fill="rgb(246,223,166)" stroke="rgb(246,223,166)" stroke-width="1" opacity="0.9882352941176471" d="M 232.5 77 L 233 79.5 L 232 79.5 L 232.5 77 Z " /><path fill="rgb(246,223,166)" stroke="rgb(246,223,166)" stroke-width="1" opacity="0.9882352941176471" d="M 137.5 79 L 138.5 81 L 137.5 79 Z " /><path fill="rgb(246,223,166)" stroke="rgb(246,223,166)" stroke-width="1" opacity="0.9882352941176471" d="M 236.5 79 L 246 79.5 L 236 80 L 235.5 85 L 235 80.5 L 236.5 79 Z " /><path fill="rgb(246,223,166)" stroke="rgb(246,223,166)" stroke-width="1" opacity="0.9882352941176471" d="M 247.5 79 L 254 79.5 L 247.5 80 L 247.5 79 Z " /><path fill="rgb(246,223,166)" stroke="rgb(246,223,166)" stroke-width="1" opacity="0.9882352941176471" d="M 259.5 79 L 264 79.5 L 259.5 80 L 259.5 79 Z " /><path fill="rgb(246,223,166)" stroke="rgb(246,223,166)" stroke-width="1" opacity="0.9882352941176471" d="M 51.5 80 L 52.5 82 L 51.5 80 Z " /><path fill="rgb(246,223,166)" stroke="rgb(246,223,166)" stroke-width="1" opacity="0.9882352941176471" d="M 140.5 81 L 142.5 84 L 140.5 81 Z " /><path fill="rgb(246,223,166)" stroke="rgb(246,223,166)" stroke-width="1" opacity="0.9882352941176471" d="M 54.5 83 L 55.5 85 L 54.5 83 Z " /><path fill="rgb(246,223,166)" stroke="rgb(246,223,166)" stroke-width="1" opacity="0.9882352941176471" d="M 108.5 85 L 109 115 L 160 115.5 L 108 116 L 108.5 85 Z " /><path fill="rgb(246,223,166)" stroke="rgb(246,223,166)" stroke-width="1" opacity="0.9882352941176471" d="M 232.5 86 L 233.5 87 L 253 87.5 L 232 88 L 232.5 86 Z " /><path fill="rgb(246,223,166)" stroke="rgb(246,223,166)" stroke-width="1" opacity="0.9882352941176471" d="M 63.5 87 L 100.5 87 L 102 88.5 L 101.5 109 L 101 88 L 63.5 88 L 63.5 87 Z " /><path fill="rgb(246,223,166)" stroke="rgb(246,223,166)" stroke-width="1" opacity="0.9882352941176471" d="M 111.5 87 L 142 87.5 L 111.5 88 L 111.5 87 Z " /><path fill="rgb(246,223,166)" stroke="rgb(246,223,166)" stroke-width="1" opacity="0.9882352941176471" d="M 258.5 87 L 261 87.5 L 258.5 88 L 258.5 87 Z " /><path fill="rgb(246,223,166)" stroke="rgb(246,223,166)" stroke-width="1" opacity="0.9882352941176471" d="M 182.5 88 L 183 94.5 L 182 94.5 L 182.5 88 Z " /><path fill="rgb(246,223,166)" stroke="rgb(246,223,166)" stroke-width="1" opacity="0.9882352941176471" d="M 25.5 92 L 26.5 94 L 25.5 92 Z " /><path fill="rgb(246,223,166)" stroke="rgb(246,223,166)" stroke-width="1" opacity="0.9882352941176471" d="M 27.5 95 L 28.5 97 L 27.5 95 Z " /><path fill="rgb(246,223,166)" stroke="rgb(246,223,166)" stroke-width="1" opacity="0.9882352941176471" d="M 31.5 100 L 33.5 103 L 31.5 100 Z " /><path fill="rgb(246,223,166)" stroke="rgb(246,223,166)" stroke-width="1" opacity="0.9882352941176471" d="M 180.5 100 L 179.5 102 L 180.5 100 Z " /><path fill="rgb(246,223,166)" stroke="rgb(246,223,166)" stroke-width="1" opacity="0.9882352941176471" d="M 36.5 104 L 38.5 107 L 36.5 104 Z " /><path fill="rgb(246,223,166)" stroke="rgb(246,223,166)" stroke-width="1" opacity="0.9882352941176471" d="M 177.5 104 L 176.5 106 L 177.5 104 Z " /><path fill="rgb(246,223,166)" stroke="rgb(246,223,166)" stroke-width="1" opacity="0.9882352941176471" d="M 179.5 105 L 177.5 108 L 179.5 105 Z " /><path fill="rgb(246,223,166)" stroke="rgb(246,223,166)" stroke-width="1" opacity="0.9882352941176471" d="M 62.5 115 L 104 115.5 L 62.5 116 L 62.5 115 Z " /><path fill="rgb(246,223,167)" stroke="rgb(246,223,167)" stroke-width="1" opacity="1" d="M 58.5 29 L 102.5 29 L 104 30.5 L 103 35.5 L 103 39.5 L 103 58 L 62.5 58 Q 55.3 59.8 52 65.5 L 51 75.5 Q 52.4 81.6 57.5 84 L 62.5 86 L 103 86 L 103 102.5 L 104 103.5 Q 101.8 104.8 103 109.5 L 104 111.5 L 102.5 115 L 57.5 115 Q 39 110.5 29 97.5 L 23 87.5 L 20 70.5 Q 22.8 68.8 21 62.5 L 26 50.5 L 36.5 39 L 45.5 33 L 58.5 29 Z M 59 31 L 51 33 L 39 40 Q 27 48 23 64 L 23 81 L 31 97 Q 40 109 59 113 L 101 113 L 102 109 L 102 89 L 101 87 L 61 87 L 53 83 L 49 76 Q 48 68 51 65 L 61 57 L 101 57 L 102 56 L 102 37 L 102 35 L 101 33 L 101 31 L 59 31 Z " /><path fill="rgb(246,223,167)" stroke="rgb(246,223,167)" stroke-width="1" opacity="1" d="M 140.5 29 L 195 29 L 195 59 L 191.5 58 Q 190.3 60.3 185.5 59 L 183.5 59 L 178.5 58 L 177.5 59 L 159 59 L 160.5 62 L 179 75.5 Q 185.1 81.4 185 93.5 Q 183.1 105.1 174.5 110 L 163.5 115 L 109 115 L 109 85.5 L 109.5 85 L 116.5 85 L 118.5 85 L 120.5 86 L 123.5 85 L 125.5 86 L 128.5 85 L 130.5 85 L 134.5 86 L 136.5 85 L 138.5 85 L 140.5 86 Q 145.5 83.5 140.5 81 L 125 71 L 121 64.5 L 119 52.5 L 121 44.5 L 126 37 L 134.5 31 L 140.5 29 Z M 141 31 L 131 36 L 123 46 L 122 54 L 121 57 Q 122 65 127 70 L 144 81 L 145 85 L 143 87 L 111 87 L 111 113 L 136 113 L 138 113 L 141 114 L 142 113 L 155 113 L 158 114 L 170 111 L 177 106 Q 182 102 183 95 Q 184 83 178 78 L 173 72 L 157 62 Q 157 58 160 57 L 193 57 L 193 54 L 193 52 L 194 50 L 193 48 L 194 43 L 193 38 L 194 35 L 193 33 L 193 31 L 141 31 Z " /><path fill="rgb(246,223,167)" stroke="rgb(246,223,167)" stroke-width="1" opacity="1" d="M 201 29 L 286.5 29 L 287 29.5 L 287 36.5 L 287 38.5 L 287 49.5 L 286 50.5 Q 288.5 52 287 57.5 Q 286 60 281.5 59 L 279.5 59 L 277.5 58 L 276.5 59 L 257.5 59 L 255.5 59 L 235.5 59 Q 234.5 59 235 63.5 L 236.5 65 L 267 65 L 267 79 L 236.5 79 Q 233.8 80.4 235 85 L 267.5 85 L 268.5 86 L 269.5 85 L 283.5 85 L 287 86.5 L 286 92.5 L 287 95.5 L 286 98.5 L 287 99.5 L 287 115 L 284.5 114 L 283.5 115 L 201 115 L 201 29 Z M 203 31 L 203 34 L 203 36 L 202 40 L 203 42 L 203 54 L 202 55 L 203 58 L 202 61 L 203 66 L 203 68 L 202 76 L 203 81 L 203 91 L 202 92 Q 204 93 203 98 L 203 100 L 203 109 L 202 110 L 203 113 L 285 113 Q 286 113 285 109 L 285 107 L 286 104 L 285 103 L 285 89 L 282 86 L 281 87 L 234 87 L 232 84 L 233 77 L 248 77 L 249 78 L 253 77 L 255 77 L 260 78 L 265 77 L 265 67 L 262 67 L 258 67 L 255 66 L 254 67 L 233 67 L 232 65 L 233 62 L 232 59 L 234 57 L 285 57 Q 287 56 285 55 L 285 33 L 286 32 L 203 31 Z " /><path fill="rgb(246,223,167)" stroke="rgb(246,223,167)" stroke-width="1" opacity="1" d="M 313.5 34 L 316 34.5 L 312 36.5 Q 312.8 38.8 310.5 38 L 313.5 34 Z " /><path fill="rgb(246,223,167)" stroke="rgb(246,223,167)" stroke-width="1" opacity="1" d="M 292.5 87 L 295 87.5 L 293 90.5 L 293.5 92 L 292 89.5 L 292.5 87 Z " /><path fill="rgb(246,223,167)" stroke="rgb(246,223,167)" stroke-width="1" opacity="1" d="M 292.5 95 L 294 99.5 L 293 101.5 L 294 104.5 L 293 106.5 L 294 108.5 L 292 107.5 L 293 104.5 L 292 99.5 L 293 97.5 L 292.5 95 Z " /><path fill="rgb(246,223,167)" stroke="rgb(246,223,167)" stroke-width="1" opacity="1" d="M 293.5 110 L 293 111.5 L 292.5 113 L 292 111.5 L 293.5 110 Z " /><path fill="rgb(246,223,167)" stroke="rgb(246,223,167)" stroke-width="1" opacity="1" d="M 294.5 112 L 298.5 114 L 300 113.5 Q 298.8 116.3 297.5 114 L 293.5 115 L 294 113.5 L 294.5 112 Z " /><path fill="rgb(247,227,182)" stroke="rgb(247,227,182)" stroke-width="1" opacity="0.996078431372549" d="M 327.5 28 L 330.5 29 L 331.5 28 L 380 28 L 380 59 L 344.5 59 L 344 60.5 L 365 77.5 L 369 87.5 L 369 95.5 Q 366.8 103.3 361.5 108 Q 355.3 114.3 344.5 116 L 300.5 116 Q 298.5 112 296.5 116 L 294 115.5 L 298.5 113 L 300.5 113 L 311.5 113 L 312.5 114 L 313.5 113 L 344.5 113 Q 357.1 110.6 363 101.5 L 366 93.5 L 366 88.5 Q 362.6 76.9 353.5 71 L 341 62.5 Q 340 57 343.5 56 L 375.5 56 Q 376.6 55.9 376 50.5 L 377 47.5 L 376 45.5 L 377 44.5 L 377 32.5 L 375.5 31 L 324.5 31 Q 314.5 34.5 309 42.5 L 307 48 L 305 48.5 L 306 53.5 L 306 55.5 L 305 58.5 Q 308.5 68.5 316.5 74 L 329 82.5 L 328 87 L 325.5 88 L 302.5 88 L 297.5 87 L 295.5 87 L 294 87.5 L 295 89.5 L 295 91.5 L 294.5 98 L 293 94.5 L 293 90.5 L 292 88.5 L 293 85 L 298.5 86 L 299.5 85 L 326 85 L 324.5 82 L 307 68.5 L 304 62.5 L 303 56.5 L 303 54.5 Q 301.5 50.1 304.5 51 L 304 49.5 L 305 44.5 L 309 38 Q 312.8 39.5 312 36.5 L 316 34.5 L 315.5 33 L 321.5 30 L 323 30.5 Q 322.1 27.5 326.5 29 L 327.5 28 Z " /><path fill="rgb(247,227,182)" stroke="rgb(247,227,182)" stroke-width="1" opacity="0.996078431372549" d="M 294.5 99 L 295 102 Q 292.3 103.1 293 100.5 L 294.5 99 Z " /><path fill="rgb(247,227,182)" stroke="rgb(247,227,182)" stroke-width="1" opacity="0.996078431372549" d="M 293.5 103 Q 295.8 102.3 295 104.5 L 293.5 103 Z " /><path fill="rgb(247,227,182)" stroke="rgb(247,227,182)" stroke-width="1" opacity="0.996078431372549" d="M 293.5 109 Q 296.1 108.2 295 111.5 L 293.5 114 L 293 111.5 L 293.5 109 Z " /><path fill="rgb(0,0,0)" stroke="rgb(0,0,0)" stroke-width="1" opacity="0" d="M 0 0 L 400 0 L 400 144 L 0 144 L 0 0 Z M 62 27 L 49 30 L 37 37 L 23 53 L 19 66 Q 18 87 27 98 L 41 110 L 52 115 L 62 117 L 105 117 L 106 116 L 109 117 L 162 117 L 167 116 L 176 111 Q 184 105 187 95 L 187 86 L 184 78 Q 176 68 164 62 L 197 61 L 197 29 L 196 27 L 144 27 L 136 29 L 128 34 Q 120 39 118 50 L 118 60 L 123 71 L 139 83 L 114 83 L 113 84 L 110 83 L 108 83 Q 103 82 102 84 L 100 83 L 96 84 L 94 84 L 90 83 L 82 83 L 81 84 L 79 83 L 76 84 L 67 80 L 65 76 L 65 69 L 68 63 Q 75 59 89 60 L 91 60 L 103 61 L 108 60 Q 113 61 113 60 L 113 31 L 105 27 L 62 27 Z M 201 27 L 199 29 L 199 117 L 289 117 L 290 116 L 292 117 L 346 117 L 359 112 Q 367 107 370 97 L 370 86 L 364 75 L 346 62 L 371 61 L 372 60 L 381 60 L 381 60 L 381 27 L 328 27 L 309 33 L 302 38 Q 295 43 293 54 L 294 56 L 293 58 L 293 60 L 298 71 L 315 83 L 237 83 L 238 81 L 268 81 L 269 80 L 269 65 L 268 63 L 237 63 Q 236 60 239 61 L 241 61 L 284 61 L 289 60 L 289 27 L 201 27 Z " /><path fill="rgb(0,0,0)" stroke="rgb(0,0,0)" stroke-width="1" opacity="0" d="M 189.5 34 L 192 35 L 192 55 L 159.5 55 L 156 57 Q 154.5 63.3 158.5 65 L 175 76 L 181 86.5 L 181 96.5 L 174.5 105 L 164.5 109 L 118 109 L 119 104.5 L 118 102.5 L 118 100.5 L 118 90.5 L 119.5 89 L 142.5 89 L 150 84.5 L 150 81.5 L 145.5 77 L 133 69 L 129 59.5 L 129 54.5 L 133 43 L 141.5 37 L 147.5 35 L 188.5 35 L 189.5 34 Z " /><path fill="rgb(0,0,0)" stroke="rgb(0,0,0)" stroke-width="1" opacity="0" d="M 209.5 34 L 213.5 35 L 215.5 35 Q 220.2 36.3 221.5 34 L 224.5 35 L 226.5 35 L 228.5 34 L 230.5 35 L 232.5 34 L 234.5 35 L 239.5 34 L 248.5 35 L 252.5 34 L 256.5 35 L 259.5 34 L 263.5 35 L 267.5 35 L 271.5 34 L 274.5 35 L 278 36.5 L 279 38.5 L 278 40.5 L 279 43.5 L 278 45.5 L 279 47.5 L 278 50.5 Q 278.5 55 277.5 55 L 231.5 55 L 229 56 L 229 68 L 236.5 68 L 238.5 68 L 243.5 69 L 244.5 68 L 259 68 L 260 72.5 L 260 74.5 L 259.5 76 L 229 76 L 229 86.5 L 231.5 89 L 278 89 L 279 93.5 L 278 95.5 L 279 99.5 L 278 103.5 L 278 105.5 Q 279.7 110.3 275.5 109 L 271.5 109 L 263.5 110 L 260.5 109 L 256.5 109 L 254.5 110 L 251.5 109 L 247.5 110 L 244.5 109 L 242.5 110 L 235.5 109 L 231.5 110 L 228.5 109 L 226.5 110 L 222.5 110 L 214.5 109 L 212.5 109 L 208.5 110 L 206.5 109 Q 205.2 111.2 204 108.5 L 204 35.5 Q 204 34.5 208.5 35 L 209.5 34 Z " /><path fill="rgb(0,0,0)" stroke="rgb(0,0,0)" stroke-width="1" opacity="0" d="M 73.5 35 L 100 35 L 100 55 L 61.5 55 L 51 61.5 L 48 66.5 L 47 72.5 L 49 79.5 L 53.5 85 L 62.5 89 L 100 89 L 100 109 L 73.5 109 L 59.5 105 L 45 92.5 Q 40.5 86.5 39 77.5 L 39 66.5 L 41 58.5 Q 45.3 49.8 52.5 44 L 64.5 37 L 73.5 35 Z " /><path fill="rgb(0,0,0)" stroke="rgb(0,0,0)" stroke-width="1" opacity="0" d="M 318.5 35 L 361.5 35 L 362 36.5 L 363 38.5 L 362.5 40 L 364 40.5 L 362 41.5 L 363.5 44 L 361 44.5 L 364 45.5 L 362.5 50 L 364 50.5 L 362 55 L 334.5 56 L 330.5 57 L 328 59.5 L 328 62.5 L 332.5 67 L 346 76 L 350 82.5 L 351 92.5 Q 349.4 101.4 342.5 105 L 333.5 109 L 300.5 109 L 299.5 110 L 296 109 L 296 89 L 325.5 89 L 330 85.5 L 330 82.5 L 324.5 77 Q 316.2 73.8 311 67.5 Q 305.3 62.2 307 49.5 Q 309.1 42.1 314.5 38 L 318.5 35 Z " /><path fill="rgb(224,187,124)" stroke="rgb(224,187,124)" stroke-width="1" opacity="0.8666666666666667" d="M 104.5 28 L 106 33.5 L 105 36.5 L 105 38.5 L 106 47.5 L 105 49.5 L 105 51.5 L 104.5 59 L 104.5 28 Z " /><path fill="rgb(224,187,124)" stroke="rgb(224,187,124)" stroke-width="1" opacity="0.8666666666666667" d="M 62.5 31 L 100.5 31 L 101 33.5 L 100 33.5 L 99.5 32 L 62.5 32 L 62.5 31 Z " /><path fill="rgb(224,187,124)" stroke="rgb(224,187,124)" stroke-width="1" opacity="0.8666666666666667" d="M 142.5 31 L 192.5 31 L 193 33.5 L 192 33.5 L 191.5 32 L 142.5 32 L 142.5 31 Z " /><path fill="rgb(224,187,124)" stroke="rgb(224,187,124)" stroke-width="1" opacity="0.8666666666666667" d="M 203 31 L 284.5 31 L 285 31.5 L 285 55.5 L 284 55.5 L 284 32.5 L 283.5 32 L 204.5 32 L 203 32.5 L 203 31 Z " /><path fill="rgb(224,187,124)" stroke="rgb(224,187,124)" stroke-width="1" opacity="0.8666666666666667" d="M 327.5 31 L 375.5 31 L 377 32.5 L 376.5 35 L 376 32 L 327.5 32 L 327.5 31 Z " /><path fill="rgb(224,187,124)" stroke="rgb(224,187,124)" stroke-width="1" opacity="0.8666666666666667" d="M 56.5 32 L 59 32.5 L 52.5 34 L 40 41 L 38.5 44 L 35 46.5 L 30 53.5 L 30 56 Q 26 54.6 28 61.5 L 26 61.5 L 27 63.5 L 25 70.5 L 26 73.5 L 25 78.5 L 32.5 95 L 34 94.5 L 34 97 Q 36.7 95.9 36 98.5 L 39 100 L 41.5 104 L 52.5 110 L 59 111.5 L 56.5 112 Q 38.9 107.6 30 94.5 Q 21.7 85.3 23 66.5 Q 26.6 48.6 39.5 40 Q 46.3 34.3 56.5 32 Z " /><path fill="rgb(224,187,124)" stroke="rgb(224,187,124)" stroke-width="1" opacity="0.8666666666666667" d="M 136.5 33 L 138 33.5 L 131 37 Q 132.1 39.7 129.5 39 Q 122.2 44.7 123 58.5 Q 124.8 67.2 131 71.5 L 126 67.5 L 122 58.5 L 122 50.5 Q 124.1 40.6 131.5 36 L 136.5 33 Z " /><path fill="rgb(224,187,124)" stroke="rgb(224,187,124)" stroke-width="1" opacity="0.8666666666666667" d="M 313.5 33 L 312.5 35 L 313.5 33 Z " /><path fill="rgb(224,187,124)" stroke="rgb(224,187,124)" stroke-width="1" opacity="0.8666666666666667" d="M 375 37 L 377 37.5 L 376 42.5 L 376 44.5 L 375.5 50 L 375 37 Z " /><path fill="rgb(224,187,124)" stroke="rgb(224,187,124)" stroke-width="1" opacity="0.8666666666666667" d="M 308.5 38 L 306.5 41 L 308.5 38 Z " /><path fill="rgb(224,187,124)" stroke="rgb(224,187,124)" stroke-width="1" opacity="0.8666666666666667" d="M 305.5 42 L 305 43.5 L 304.5 45 L 304 43.5 L 305.5 42 Z " /><path fill="rgb(224,187,124)" stroke="rgb(224,187,124)" stroke-width="1" opacity="0.8666666666666667" d="M 302.5 49 L 303 59.5 L 302 59.5 L 302.5 49 Z " /><path fill="rgb(224,187,124)" stroke="rgb(224,187,124)" stroke-width="1" opacity="0.8666666666666667" d="M 372.5 55 L 376 55.5 L 372.5 56 L 372.5 55 Z " /><path fill="rgb(224,187,124)" stroke="rgb(224,187,124)" stroke-width="1" opacity="0.8666666666666667" d="M 231.5 57 L 232 66.5 L 231 66.5 L 231.5 57 Z " /><path fill="rgb(224,187,124)" stroke="rgb(224,187,124)" stroke-width="1" opacity="0.8666666666666667" d="M 340.5 58 L 340 59.5 L 342 63.5 L 339 61.5 L 340.5 58 Z " /><path fill="rgb(224,187,124)" stroke="rgb(224,187,124)" stroke-width="1" opacity="0.8666666666666667" d="M 61.5 59 L 64 59.5 L 61.5 60 L 61.5 59 Z " /><path fill="rgb(224,187,124)" stroke="rgb(224,187,124)" stroke-width="1" opacity="0.8666666666666667" d="M 160 59 L 196 59.5 L 161 60.5 L 162.5 63 L 160 59 Z " /><path fill="rgb(224,187,124)" stroke="rgb(224,187,124)" stroke-width="1" opacity="0.8666666666666667" d="M 236.5 59 L 285 59.5 L 236.5 60 L 236.5 59 Z " /><path fill="rgb(224,187,124)" stroke="rgb(224,187,124)" stroke-width="1" opacity="0.8666666666666667" d="M 58.5 60 L 60 60.5 L 57 62 L 53 70.5 L 53 72.5 L 57.5 82 L 60 83.5 L 58.5 84 Q 51.3 80.3 51 69.5 L 58.5 60 Z " /><path fill="rgb(224,187,124)" stroke="rgb(224,187,124)" stroke-width="1" opacity="0.8666666666666667" d="M 303.5 61 L 305 65.5 L 304 65.5 L 303.5 61 Z " /><path fill="rgb(224,187,124)" stroke="rgb(224,187,124)" stroke-width="1" opacity="0.8666666666666667" d="M 164.5 63 L 165.5 65 L 164.5 63 Z " /><path fill="rgb(224,187,124)" stroke="rgb(224,187,124)" stroke-width="1" opacity="0.8666666666666667" d="M 344.5 65 L 345.5 67 L 344.5 65 Z " /><path fill="rgb(224,187,124)" stroke="rgb(224,187,124)" stroke-width="1" opacity="0.8666666666666667" d="M 168.5 66 L 169.5 68 L 168.5 66 Z " /><path fill="rgb(224,187,124)" stroke="rgb(224,187,124)" stroke-width="1" opacity="0.8666666666666667" d="M 260.5 67 L 265 67 L 265 77 L 260 76.5 L 264 76 L 264 68 L 260.5 68 L 260.5 67 Z " /><path fill="rgb(224,187,124)" stroke="rgb(224,187,124)" stroke-width="1" opacity="0.8666666666666667" d="M 305.5 67 L 307.5 70 L 305.5 67 Z " /><path fill="rgb(224,187,124)" stroke="rgb(224,187,124)" stroke-width="1" opacity="0.8666666666666667" d="M 347.5 67 L 348.5 69 L 347.5 67 Z " /><path fill="rgb(224,187,124)" stroke="rgb(224,187,124)" stroke-width="1" opacity="0.8666666666666667" d="M 172.5 69 L 173.5 71 L 172.5 69 Z " /><path fill="rgb(224,187,124)" stroke="rgb(224,187,124)" stroke-width="1" opacity="0.8666666666666667" d="M 350.5 69 L 352.5 72 L 350.5 69 Z " /><path fill="rgb(224,187,124)" stroke="rgb(224,187,124)" stroke-width="1" opacity="0.8666666666666667" d="M 175.5 71 L 181.5 78 L 175.5 71 Z " /><path fill="rgb(224,187,124)" stroke="rgb(224,187,124)" stroke-width="1" opacity="0.8666666666666667" d="M 132.5 72 L 134.5 75 L 132.5 72 Z " /><path fill="rgb(224,187,124)" stroke="rgb(224,187,124)" stroke-width="1" opacity="0.8666666666666667" d="M 354.5 72 L 356.5 75 L 354.5 72 Z " /><path fill="rgb(224,187,124)" stroke="rgb(224,187,124)" stroke-width="1" opacity="0.8666666666666667" d="M 311.5 73 L 317 77.5 L 314.5 76 L 311.5 73 Z " /><path fill="rgb(224,187,124)" stroke="rgb(224,187,124)" stroke-width="1" opacity="0.8666666666666667" d="M 136.5 75 L 140 77.5 L 138.5 77 L 136.5 75 Z " /><path fill="rgb(224,187,124)" stroke="rgb(224,187,124)" stroke-width="1" opacity="0.8666666666666667" d="M 231.5 77 L 232 86.5 L 231 86.5 L 231.5 77 Z " /><path fill="rgb(224,187,124)" stroke="rgb(224,187,124)" stroke-width="1" opacity="0.8666666666666667" d="M 141.5 78 L 146 82.5 L 146 85.5 L 144 86.5 L 145 82.5 L 141.5 78 Z " /><path fill="rgb(224,187,124)" stroke="rgb(224,187,124)" stroke-width="1" opacity="0.8666666666666667" d="M 318.5 78 L 319.5 80 L 318.5 78 Z " /><path fill="rgb(224,187,124)" stroke="rgb(224,187,124)" stroke-width="1" opacity="0.8666666666666667" d="M 360.5 78 L 361.5 80 L 360.5 78 Z " /><path fill="rgb(224,187,124)" stroke="rgb(224,187,124)" stroke-width="1" opacity="0.8666666666666667" d="M 321.5 80 L 322.5 82 L 321.5 80 Z " /><path fill="rgb(224,187,124)" stroke="rgb(224,187,124)" stroke-width="1" opacity="0.8666666666666667" d="M 325.5 83 L 324.5 85 L 292 85 L 292 114.5 L 291 114.5 L 291 85.5 L 292.5 84 L 324.5 84 L 325.5 83 Z " /><path fill="rgb(224,187,124)" stroke="rgb(224,187,124)" stroke-width="1" opacity="0.8666666666666667" d="M 61.5 84 L 64 84.5 L 61.5 85 L 61.5 84 Z " /><path fill="rgb(224,187,124)" stroke="rgb(224,187,124)" stroke-width="1" opacity="0.8666666666666667" d="M 111.5 84 L 141 84.5 L 111.5 85 L 111.5 84 Z " /><path fill="rgb(224,187,124)" stroke="rgb(224,187,124)" stroke-width="1" opacity="0.8666666666666667" d="M 236.5 84 L 288 84.5 L 236.5 85 L 236.5 84 Z " /><path fill="rgb(224,187,124)" stroke="rgb(224,187,124)" stroke-width="1" opacity="0.8666666666666667" d="M 364.5 85 L 365 87.5 L 364 87.5 L 364.5 85 Z " /><path fill="rgb(224,187,124)" stroke="rgb(224,187,124)" stroke-width="1" opacity="0.8666666666666667" d="M 111 88 L 113 88.5 L 112 93.5 L 113 96.5 L 113 102.5 L 112 107.5 L 112 109.5 L 112.5 112 L 161.5 112 L 161.5 113 L 111 113 L 111 88 Z " /><path fill="rgb(224,187,124)" stroke="rgb(224,187,124)" stroke-width="1" opacity="0.8666666666666667" d="M 185.5 88 L 186 93.5 L 185 93.5 L 185.5 88 Z " /><path fill="rgb(224,187,124)" stroke="rgb(224,187,124)" stroke-width="1" opacity="0.8666666666666667" d="M 284.5 88 L 285 113 L 203.5 113 L 203 110.5 L 204 110.5 L 204.5 112 L 284 112 L 284.5 88 Z " /><path fill="rgb(224,187,124)" stroke="rgb(224,187,124)" stroke-width="1" opacity="0.8666666666666667" d="M 365.5 89 L 366 92.5 L 365 92.5 L 365.5 89 Z " /><path fill="rgb(224,187,124)" stroke="rgb(224,187,124)" stroke-width="1" opacity="0.8666666666666667" d="M 104.5 92 L 105 114.5 L 104 114.5 L 104.5 92 Z " /><path fill="rgb(224,187,124)" stroke="rgb(224,187,124)" stroke-width="1" opacity="0.8666666666666667" d="M 364.5 95 L 365 97.5 L 364 97.5 L 364.5 95 Z " /><path fill="rgb(224,187,124)" stroke="rgb(224,187,124)" stroke-width="1" opacity="0.8666666666666667" d="M 363.5 99 L 363 100.5 L 356.5 108 L 362 101.5 L 363.5 99 Z " /><path fill="rgb(224,187,124)" stroke="rgb(224,187,124)" stroke-width="1" opacity="0.8666666666666667" d="M 354.5 108 L 353.5 110 L 354.5 108 Z " /><path fill="rgb(224,187,124)" stroke="rgb(224,187,124)" stroke-width="1" opacity="0.8666666666666667" d="M 100.5 110 L 101 113 L 62 112.5 L 100 112 L 100.5 110 Z " /><path fill="rgb(224,187,124)" stroke="rgb(224,187,124)" stroke-width="1" opacity="0.8666666666666667" d="M 295.5 111 L 296.5 112 L 344 112.5 L 295 113 L 295.5 111 Z " /><path fill="rgb(244,221,163)" stroke="rgb(244,221,163)" stroke-width="1" opacity="0.9921568627450981" d="M 58.5 31 L 62 31.5 L 58.5 32 L 58.5 31 Z " /><path fill="rgb(244,221,163)" stroke="rgb(244,221,163)" stroke-width="1" opacity="0.9921568627450981" d="M 133.5 34 L 132.5 36 L 133.5 34 Z " /><path fill="rgb(244,221,163)" stroke="rgb(244,221,163)" stroke-width="1" opacity="0.9921568627450981" d="M 311.5 35 L 309.5 38 L 311.5 35 Z " /><path fill="rgb(244,221,163)" stroke="rgb(244,221,163)" stroke-width="1" opacity="0.9921568627450981" d="M 44.5 36 L 43.5 38 L 44.5 36 Z " /><path fill="rgb(244,221,163)" stroke="rgb(244,221,163)" stroke-width="1" opacity="0.9921568627450981" d="M 129.5 37 L 126.5 41 L 129.5 37 Z " /><path fill="rgb(244,221,163)" stroke="rgb(244,221,163)" stroke-width="1" opacity="0.9921568627450981" d="M 41.5 38 L 40.5 40 L 41.5 38 Z " /><path fill="rgb(244,221,163)" stroke="rgb(244,221,163)" stroke-width="1" opacity="0.9921568627450981" d="M 103.5 39 L 104 59 L 63 58.5 L 103 58 L 103.5 39 Z " /><path fill="rgb(244,221,163)" stroke="rgb(244,221,163)" stroke-width="1" opacity="0.9921568627450981" d="M 38.5 40 L 30.5 49 L 38.5 40 Z " /><path fill="rgb(244,221,163)" stroke="rgb(244,221,163)" stroke-width="1" opacity="0.9921568627450981" d="M 125.5 42 L 124.5 44 L 125.5 42 Z " /><path fill="rgb(244,221,163)" stroke="rgb(244,221,163)" stroke-width="1" opacity="0.9921568627450981" d="M 29.5 50 L 28.5 52 L 29.5 50 Z " /><path fill="rgb(244,221,163)" stroke="rgb(244,221,163)" stroke-width="1" opacity="0.9921568627450981" d="M 57.5 60 L 53 65.5 L 52.5 67 L 52 65.5 L 57.5 60 Z " /><path fill="rgb(244,221,163)" stroke="rgb(244,221,163)" stroke-width="1" opacity="0.9921568627450981" d="M 159.5 60 L 160.5 62 L 159.5 60 Z " /><path fill="rgb(244,221,163)" stroke="rgb(244,221,163)" stroke-width="1" opacity="0.9921568627450981" d="M 23.5 63 L 24 65.5 L 23 65.5 L 23.5 63 Z " /><path fill="rgb(244,221,163)" stroke="rgb(244,221,163)" stroke-width="1" opacity="0.9921568627450981" d="M 124.5 65 L 125.5 67 L 124.5 65 Z " /><path fill="rgb(244,221,163)" stroke="rgb(244,221,163)" stroke-width="1" opacity="0.9921568627450981" d="M 166.5 65 L 167.5 67 L 166.5 65 Z " /><path fill="rgb(244,221,163)" stroke="rgb(244,221,163)" stroke-width="1" opacity="0.9921568627450981" d="M 305.5 66 L 306.5 68 L 305.5 66 Z " /><path fill="rgb(244,221,163)" stroke="rgb(244,221,163)" stroke-width="1" opacity="0.9921568627450981" d="M 170.5 68 L 171.5 70 L 170.5 68 Z " /><path fill="rgb(244,221,163)" stroke="rgb(244,221,163)" stroke-width="1" opacity="0.9921568627450981" d="M 127.5 69 L 129.5 72 L 127.5 69 Z " /><path fill="rgb(244,221,163)" stroke="rgb(244,221,163)" stroke-width="1" opacity="0.9921568627450981" d="M 308.5 70 L 310.5 73 L 308.5 70 Z " /><path fill="rgb(244,221,163)" stroke="rgb(244,221,163)" stroke-width="1" opacity="0.9921568627450981" d="M 131.5 72 L 132.5 74 L 131.5 72 Z " /><path fill="rgb(244,221,163)" stroke="rgb(244,221,163)" stroke-width="1" opacity="0.9921568627450981" d="M 52.5 77 L 58 83.5 L 52 78.5 L 52.5 77 Z " /><path fill="rgb(244,221,163)" stroke="rgb(244,221,163)" stroke-width="1" opacity="0.9921568627450981" d="M 23.5 78 L 24 80.5 L 23 80.5 L 23.5 78 Z " /><path fill="rgb(244,221,163)" stroke="rgb(244,221,163)" stroke-width="1" opacity="0.9921568627450981" d="M 140.5 78 L 141.5 80 L 140.5 78 Z " /><path fill="rgb(244,221,163)" stroke="rgb(244,221,163)" stroke-width="1" opacity="0.9921568627450981" d="M 63.5 85 L 104 85 L 104 102.5 L 103 102.5 L 103 86 L 63.5 86 L 63.5 85 Z " /><path fill="rgb(244,221,163)" stroke="rgb(244,221,163)" stroke-width="1" opacity="0.9921568627450981" d="M 144.5 85 L 143.5 87 L 144.5 85 Z " /><path fill="rgb(244,221,163)" stroke="rgb(244,221,163)" stroke-width="1" opacity="0.9921568627450981" d="M 28.5 92 L 29.5 94 L 28.5 92 Z " /><path fill="rgb(244,221,163)" stroke="rgb(244,221,163)" stroke-width="1" opacity="0.9921568627450981" d="M 31.5 96 L 38.5 104 L 31.5 96 Z " /><path fill="rgb(244,221,163)" stroke="rgb(244,221,163)" stroke-width="1" opacity="0.9921568627450981" d="M 40.5 104 L 41.5 106 L 40.5 104 Z " /><path fill="rgb(244,221,163)" stroke="rgb(244,221,163)" stroke-width="1" opacity="0.9921568627450981" d="M 103.5 104 L 104 106.5 L 103 106.5 L 103.5 104 Z " /><path fill="rgb(244,221,163)" stroke="rgb(244,221,163)" stroke-width="1" opacity="0.9921568627450981" d="M 43.5 106 L 44.5 108 L 43.5 106 Z " /><path fill="rgb(244,221,163)" stroke="rgb(244,221,163)" stroke-width="1" opacity="0.9921568627450981" d="M 58.5 112 L 62 112.5 L 58.5 113 L 58.5 112 Z " /><path fill="rgb(245,223,170)" stroke="rgb(245,223,170)" stroke-width="1" opacity="0.9921568627450981" d="M 266.5 28 L 269 28.5 L 266.5 29 L 266.5 28 Z " /><path fill="rgb(245,223,170)" stroke="rgb(245,223,170)" stroke-width="1" opacity="0.9921568627450981" d="M 275.5 28 L 287.5 28 L 288 31.5 L 287 31.5 L 286.5 29 L 275.5 29 L 275.5 28 Z " /><path fill="rgb(245,223,170)" stroke="rgb(245,223,170)" stroke-width="1" opacity="0.9921568627450981" d="M 287.5 33 L 288 59 L 286 58.5 L 287 57.5 L 287.5 33 Z " /><path fill="rgb(245,223,170)" stroke="rgb(245,223,170)" stroke-width="1" opacity="0.9921568627450981" d="M 257.5 56 L 266 56.5 L 257.5 57 L 257.5 56 Z " /><path fill="rgb(245,223,170)" stroke="rgb(245,223,170)" stroke-width="1" opacity="0.9921568627450981" d="M 271.5 56 L 274 56.5 L 271.5 57 L 271.5 56 Z " /><path fill="rgb(245,223,170)" stroke="rgb(245,223,170)" stroke-width="1" opacity="0.9921568627450981" d="M 279.5 56 L 285 56.5 L 279.5 57 L 279.5 56 Z " /><path fill="rgb(245,223,170)" stroke="rgb(245,223,170)" stroke-width="1" opacity="0.9921568627450981" d="M 259.5 64 L 267.5 64 L 268 66.5 L 267 66.5 L 266.5 65 L 259.5 65 L 259.5 64 Z " /><path fill="rgb(245,223,170)" stroke="rgb(245,223,170)" stroke-width="1" opacity="0.9921568627450981" d="M 287.5 85 L 288 106.5 L 287 106.5 L 287.5 85 Z " /><path fill="rgb(245,223,170)" stroke="rgb(245,223,170)" stroke-width="1" opacity="0.9921568627450981" d="M 253.5 87 L 258 87.5 L 253.5 88 L 253.5 87 Z " /><path fill="rgb(245,223,170)" stroke="rgb(245,223,170)" stroke-width="1" opacity="0.9921568627450981" d="M 261.5 87 L 269 87.5 L 261.5 88 L 261.5 87 Z " /><path fill="rgb(245,223,170)" stroke="rgb(245,223,170)" stroke-width="1" opacity="0.9921568627450981" d="M 270.5 87 L 284 87.5 L 270.5 88 L 270.5 87 Z " /><path fill="rgb(245,223,170)" stroke="rgb(245,223,170)" stroke-width="1" opacity="0.9921568627450981" d="M 297.5 87 L 302 87.5 L 297.5 88 L 297.5 87 Z " /><path fill="rgb(245,223,170)" stroke="rgb(245,223,170)" stroke-width="1" opacity="0.9921568627450981" d="M 292.5 91 L 293 94.5 L 292 94.5 L 292.5 91 Z " /><path fill="rgb(245,223,170)" stroke="rgb(245,223,170)" stroke-width="1" opacity="0.9921568627450981" d="M 294.5 105 L 295 108.5 L 294 108.5 L 294.5 105 Z " /><path fill="rgb(245,223,170)" stroke="rgb(245,223,170)" stroke-width="1" opacity="0.9921568627450981" d="M 287.5 108 L 288 116 L 278 115.5 L 287 115 L 287.5 108 Z " /><path fill="rgb(245,223,170)" stroke="rgb(245,223,170)" stroke-width="1" opacity="0.9921568627450981" d="M 292.5 108 L 293 110.5 L 292 110.5 L 292.5 108 Z " /><path fill="rgb(245,223,170)" stroke="rgb(245,223,170)" stroke-width="1" opacity="0.9921568627450981" d="M 292.5 113 L 294 115.5 L 292 116 L 292.5 113 Z " /><path fill="rgb(245,223,170)" stroke="rgb(245,223,170)" stroke-width="1" opacity="0.9921568627450981" d="M 261.5 115 L 267 115.5 L 261.5 116 L 261.5 115 Z " /><path fill="rgb(245,223,170)" stroke="rgb(245,223,170)" stroke-width="1" opacity="0.9921568627450981" d="M 272.5 115 L 275 115.5 L 272.5 116 L 272.5 115 Z " /><path fill="rgb(245,223,170)" stroke="rgb(245,223,170)" stroke-width="1" opacity="0.9921568627450981" d="M 297.5 115 L 300 115.5 L 297.5 116 L 297.5 115 Z " /><path fill="rgb(253,243,223)" stroke="rgb(253,243,223)" stroke-width="1" opacity="0.5333333333333333" d="M 374.5 59 L 377 59.5 L 374.5 60 L 374.5 59 Z " /><path fill="rgb(253,243,223)" stroke="rgb(253,243,223)" stroke-width="1" opacity="0.5333333333333333" d="M 346.5 62 L 347.5 64 L 346.5 62 Z " /><path fill="rgb(253,243,223)" stroke="rgb(253,243,223)" stroke-width="1" opacity="0.5333333333333333" d="M 349.5 64 L 351.5 67 L 349.5 64 Z " /><path fill="rgb(253,243,223)" stroke="rgb(253,243,223)" stroke-width="1" opacity="0.5333333333333333" d="M 353.5 67 L 354.5 69 L 353.5 67 Z " /><path fill="rgb(253,243,223)" stroke="rgb(253,243,223)" stroke-width="1" opacity="0.5333333333333333" d="M 357.5 70 L 358.5 72 L 357.5 70 Z " /><path fill="rgb(253,243,223)" stroke="rgb(253,243,223)" stroke-width="1" opacity="0.5333333333333333" d="M 360.5 72 L 364.5 77 L 360.5 72 Z " /><path fill="rgb(253,243,223)" stroke="rgb(253,243,223)" stroke-width="1" opacity="0.5333333333333333" d="M 365.5 78 L 368 82.5 L 367 82.5 L 365.5 78 Z " /><path fill="rgb(253,243,223)" stroke="rgb(253,243,223)" stroke-width="1" opacity="0.5333333333333333" d="M 368.5 84 L 369 86.5 L 368 86.5 L 368.5 84 Z " /><path fill="rgb(253,243,223)" stroke="rgb(253,243,223)" stroke-width="1" opacity="0.5333333333333333" d="M 367.5 99 L 368 100.5 L 366 101.5 L 367.5 99 Z " /><path fill="rgb(253,243,223)" stroke="rgb(253,243,223)" stroke-width="1" opacity="0.5333333333333333" d="M 365.5 103 L 364.5 105 L 365.5 103 Z " /><path fill="rgb(253,243,223)" stroke="rgb(253,243,223)" stroke-width="1" opacity="0.5333333333333333" d="M 360.5 108 L 358.5 111 L 360.5 108 Z " /><path fill="rgb(253,243,223)" stroke="rgb(253,243,223)" stroke-width="1" opacity="0.5333333333333333" d="M 356.5 111 L 355.5 113 L 356.5 111 Z " /><path fill="rgb(246,221,165)" stroke="rgb(246,221,165)" stroke-width="1" opacity="0.5058823529411764" d="M 128.5 34 L 124.5 39 L 128.5 34 Z " /><path fill="rgb(246,221,165)" stroke="rgb(246,221,165)" stroke-width="1" opacity="0.5058823529411764" d="M 37.5 37 L 36.5 39 L 37.5 37 Z " /><path fill="rgb(246,221,165)" stroke="rgb(246,221,165)" stroke-width="1" opacity="0.5058823529411764" d="M 366.5 55 L 370 55.5 L 366.5 56 L 366.5 55 Z " /><path fill="rgb(246,221,165)" stroke="rgb(246,221,165)" stroke-width="1" opacity="0.5058823529411764" d="M 367.5 59 L 374 59.5 L 367.5 60 L 367.5 59 Z " /><path fill="rgb(246,221,165)" stroke="rgb(246,221,165)" stroke-width="1" opacity="0.5058823529411764" d="M 53.5 60 L 52.5 62 L 53.5 60 Z " /><path fill="rgb(246,221,165)" stroke="rgb(246,221,165)" stroke-width="1" opacity="0.5058823529411764" d="M 232.5 67 L 260 67.5 L 232.5 68 L 232.5 67 Z " /><path fill="rgb(246,221,165)" stroke="rgb(246,221,165)" stroke-width="1" opacity="0.5058823529411764" d="M 123.5 69 L 126.5 73 L 123.5 69 Z " /><path fill="rgb(246,221,165)" stroke="rgb(246,221,165)" stroke-width="1" opacity="0.5058823529411764" d="M 172.5 73 L 173.5 75 L 172.5 73 Z " /><path fill="rgb(246,221,165)" stroke="rgb(246,221,165)" stroke-width="1" opacity="0.5058823529411764" d="M 232.5 76 L 260 76.5 L 232.5 77 L 232.5 76 Z " /><path fill="rgb(246,221,165)" stroke="rgb(246,221,165)" stroke-width="1" opacity="0.5058823529411764" d="M 176.5 77 L 177.5 79 L 176.5 77 Z " /><path fill="rgb(246,221,165)" stroke="rgb(246,221,165)" stroke-width="1" opacity="0.5058823529411764" d="M 51.5 81 L 54.5 85 L 51.5 81 Z " /><path fill="rgb(246,221,165)" stroke="rgb(246,221,165)" stroke-width="1" opacity="0.5058823529411764" d="M 36.5 105 L 37.5 107 L 36.5 105 Z " /><path fill="rgb(188,139,76)" stroke="rgb(188,139,76)" stroke-width="1" opacity="0.5372549019607843" d="M 105 28 L 111 30 L 111 43.5 L 110 44.5 L 110 46.5 L 111 49.5 L 110 52.5 L 111 54.5 L 110 57.5 L 109.5 60 L 69.5 60 L 64 64.5 Q 61.3 67.8 62 74.5 L 64 78.5 L 66.5 82 L 69.5 84 L 111 84.5 L 108 85 L 108 113.5 L 107 116 L 104.5 117 L 104 115.5 L 105 114.5 L 105 92.5 L 105 90.5 L 104 88.5 L 104 86.5 L 103.5 85 L 64.5 85 L 60.5 84 L 56 80.5 L 53 72.5 L 54 69.5 L 57 62 L 64.5 59 L 105 59 L 105 51.5 L 106 50.5 L 105 48.5 L 106 46.5 Q 103.3 44.8 105 38.5 L 105 36.5 L 106 33.5 L 105 28 Z " /><path fill="rgb(188,139,76)" stroke="rgb(188,139,76)" stroke-width="1" opacity="0.5372549019607843" d="M 314.5 31 L 316 31.5 L 306 40.5 L 302 49.5 L 302 59.5 L 308 72 L 325 83.5 L 318 84 L 316.5 81 L 301 71 L 297 63.5 L 296 53.5 L 297 50.5 Q 298.5 40.5 305.5 36 L 314.5 31 Z " /><path fill="rgb(188,139,76)" stroke="rgb(188,139,76)" stroke-width="1" opacity="0.5372549019607843" d="M 59.5 32 L 99.5 32 L 100 34 L 68.5 34 L 54.5 39 L 45 47.5 L 43 50.5 L 37 59.5 L 35 69.5 L 36 71.5 L 35 73.5 L 35 75.5 Q 35.3 81.7 39 84.5 L 39 86.5 Q 42.5 95.5 49.5 101 L 52.5 103 L 56.5 106 L 68.5 110 L 100 110 L 99.5 112 L 59.5 112 Q 47 109 39 101.5 Q 39.8 99.3 37.5 100 L 36 97 Q 33 98.3 34 94.5 L 32 94.5 L 25 78.5 L 26 73.5 L 26 69.5 Q 24.8 64.8 27 63.5 L 26 61.5 L 28 61.5 L 28 56.5 L 30 56 L 30 53.5 L 37.5 44 L 40 42.5 Q 39.3 40.3 41.5 41 L 44.5 38 L 59.5 32 Z " /><path fill="rgb(188,139,76)" stroke="rgb(188,139,76)" stroke-width="1" opacity="0.5372549019607843" d="M 141.5 32 L 191.5 32 L 192 34 L 145.5 34 Q 137 36.5 132 42.5 L 128 50.5 Q 129.3 55.3 127 56.5 L 129 64.5 L 136.5 73 L 148 80.5 L 149 84.5 L 144.5 88 L 146 85.5 L 146 82.5 L 141.5 78 Q 132.6 74.4 127 67.5 L 123 58.5 L 123 50.5 L 129.5 39 L 132.5 37 L 141.5 32 Z " /><path fill="rgb(188,139,76)" stroke="rgb(188,139,76)" stroke-width="1" opacity="0.5372549019607843" d="M 204 32 L 283.5 32 L 284 32.5 L 284 56 L 278 55.5 L 280 55 L 280 34.5 L 279.5 34 L 204.5 34 L 204 32 Z " /><path fill="rgb(188,139,76)" stroke="rgb(188,139,76)" stroke-width="1" opacity="0.5372549019607843" d="M 324.5 32 L 375.5 32 Q 376.5 32 376 36.5 L 375 37.5 L 375 49.5 L 376 55 L 367.5 55 L 367 52.5 L 367 50.5 L 367 39.5 L 366 38.5 L 367 34 L 321 33.5 L 324.5 32 Z " /><path fill="rgb(188,139,76)" stroke="rgb(188,139,76)" stroke-width="1" opacity="0.5372549019607843" d="M 230 56 L 232 56.5 L 231 57.5 L 231 66.5 L 231.5 68 L 230 67.5 L 230 56 Z " /><path fill="rgb(188,139,76)" stroke="rgb(188,139,76)" stroke-width="1" opacity="0.5372549019607843" d="M 335.5 56 L 342 56.5 Q 338.5 57 339 61.5 L 358 75 L 358 77 Q 360.7 75.9 360 78.5 Q 365.7 83.3 365 94.5 Q 362.5 103.5 355.5 108 L 346.5 112 L 296 112 L 296.5 110 L 337.5 110 L 350 103 L 355 91.5 L 354 88.5 L 353 81.5 L 343.5 71 L 331 61.5 L 335.5 56 Z " /><path fill="rgb(188,139,76)" stroke="rgb(188,139,76)" stroke-width="1" opacity="0.5372549019607843" d="M 161.5 60 Q 163.8 59.3 163 61.5 L 163.5 63 L 161.5 60 Z " /><path fill="rgb(188,139,76)" stroke="rgb(188,139,76)" stroke-width="1" opacity="0.5372549019607843" d="M 165.5 63 L 167.5 66 L 165.5 63 Z " /><path fill="rgb(188,139,76)" stroke="rgb(188,139,76)" stroke-width="1" opacity="0.5372549019607843" d="M 169.5 66 L 175 70.5 L 172.5 69 L 169.5 66 Z " /><path fill="rgb(188,139,76)" stroke="rgb(188,139,76)" stroke-width="1" opacity="0.5372549019607843" d="M 261 68 L 264 68 L 264 76 L 261 76 L 261 68 Z " /><path fill="rgb(188,139,76)" stroke="rgb(188,139,76)" stroke-width="1" opacity="0.5372549019607843" d="M 176.5 71 Q 184.8 75.8 186 87.5 L 185 87.5 L 185 83.5 L 182 77.5 L 176.5 71 Z " /><path fill="rgb(188,139,76)" stroke="rgb(188,139,76)" stroke-width="1" opacity="0.5372549019607843" d="M 230 76 L 232 76.5 L 231 77.5 L 231 86.5 L 231.5 88 L 230 87.5 L 230 76 Z " /><path fill="rgb(188,139,76)" stroke="rgb(188,139,76)" stroke-width="1" opacity="0.5372549019607843" d="M 288 84 L 292 84.5 L 291 85.5 L 291 114.5 L 291.5 116 Q 288.2 117.1 289 114.5 L 288 113.5 L 288 84 Z " /><path fill="rgb(188,139,76)" stroke="rgb(188,139,76)" stroke-width="1" opacity="0.5372549019607843" d="M 113.5 88 L 119 88.5 L 117 89 L 116 97.5 L 116 99.5 Q 114.8 104.2 117 105.5 L 116 108.5 L 117.5 110 L 165.5 110 Q 172.8 108.3 176.5 103 L 172.5 108 L 163.5 112 L 112 112 L 113 108.5 L 112 106.5 L 113 102.5 L 113 96.5 L 112 89.5 L 113.5 88 Z " /><path fill="rgb(188,139,76)" stroke="rgb(188,139,76)" stroke-width="1" opacity="0.5372549019607843" d="M 278.5 88 Q 283.9 87.4 284 88.5 L 284 112 L 204.5 112 L 204 110 L 279.5 110 L 280 109.5 L 280 89 L 278.5 88 Z " /><path fill="rgb(188,139,76)" stroke="rgb(188,139,76)" stroke-width="1" opacity="0.5372549019607843" d="M 185.5 94 L 186 97.5 L 185 97.5 L 185.5 94 Z " /><path fill="rgb(246,223,169)" stroke="rgb(246,223,169)" stroke-width="1" opacity="0.7490196078431373" d="M 35.5 39 L 33.5 42 L 35.5 39 Z " /><path fill="rgb(246,223,169)" stroke="rgb(246,223,169)" stroke-width="1" opacity="0.7490196078431373" d="M 30.5 44 L 29.5 46 L 30.5 44 Z " /><path fill="rgb(246,223,169)" stroke="rgb(246,223,169)" stroke-width="1" opacity="0.7490196078431373" d="M 350.5 59 L 356 59.5 L 350.5 60 L 350.5 59 Z " /><path fill="rgb(246,223,169)" stroke="rgb(246,223,169)" stroke-width="1" opacity="0.7490196078431373" d="M 357.5 59 L 367 59.5 L 357.5 60 L 357.5 59 Z " /><path fill="rgb(246,223,169)" stroke="rgb(246,223,169)" stroke-width="1" opacity="0.7490196078431373" d="M 48.5 70 L 49 73.5 L 48 73.5 L 48.5 70 Z " /><path fill="rgb(246,223,169)" stroke="rgb(246,223,169)" stroke-width="1" opacity="0.7490196078431373" d="M 170.5 71 L 171.5 73 L 170.5 71 Z " /><path fill="rgb(246,223,169)" stroke="rgb(246,223,169)" stroke-width="1" opacity="0.7490196078431373" d="M 29.5 98 L 30.5 100 L 29.5 98 Z " /><path fill="rgb(246,223,169)" stroke="rgb(246,223,169)" stroke-width="1" opacity="0.7490196078431373" d="M 178.5 102 L 175.5 106 L 178.5 102 Z " /><path fill="rgb(246,223,169)" stroke="rgb(246,223,169)" stroke-width="1" opacity="0.7490196078431373" d="M 34.5 103 L 35.5 105 L 34.5 103 Z " /><path fill="rgb(246,223,169)" stroke="rgb(246,223,169)" stroke-width="1" opacity="0.7490196078431373" d="M 176.5 108 L 175.5 110 L 176.5 108 Z " /><path fill="rgb(251,224,178)" stroke="rgb(251,224,178)" stroke-width="1" opacity="0.25098039215686274" d="M 61.5 27 L 105 27.5 L 61.5 28 L 61.5 27 Z " /><path fill="rgb(251,224,178)" stroke="rgb(251,224,178)" stroke-width="1" opacity="0.25098039215686274" d="M 143.5 27 L 195.5 27 L 197 28.5 L 196.5 59 L 196 28 L 143.5 28 L 143.5 27 Z " /><path fill="rgb(251,224,178)" stroke="rgb(251,224,178)" stroke-width="1" opacity="0.25098039215686274" d="M 200.5 27 L 289 27 L 289 60 L 287 59.5 L 288 58.5 L 288 28 L 200 28 L 200 116 L 287.5 116 L 288 114.5 L 289 114.5 L 288.5 117 L 199 117 L 199 28.5 L 200.5 27 Z " /><path fill="rgb(251,224,178)" stroke="rgb(251,224,178)" stroke-width="1" opacity="0.25098039215686274" d="M 327.5 27 L 381 27 L 381 60 L 377 59.5 L 380 59 L 380 28 L 327.5 28 L 327.5 27 Z " /><path fill="rgb(251,224,178)" stroke="rgb(251,224,178)" stroke-width="1" opacity="0.25098039215686274" d="M 55.5 28 L 58 28.5 L 55.5 29 L 55.5 28 Z " /><path fill="rgb(251,224,178)" stroke="rgb(251,224,178)" stroke-width="1" opacity="0.25098039215686274" d="M 138.5 28 L 141 28.5 L 138.5 29 L 138.5 28 Z " /><path fill="rgb(251,224,178)" stroke="rgb(251,224,178)" stroke-width="1" opacity="0.25098039215686274" d="M 322.5 28 L 325 28.5 L 322.5 29 L 322.5 28 Z " /><path fill="rgb(251,224,178)" stroke="rgb(251,224,178)" stroke-width="1" opacity="0.25098039215686274" d="M 51.5 29 L 54 29.5 L 51.5 30 L 51.5 29 Z " /><path fill="rgb(251,224,178)" stroke="rgb(251,224,178)" stroke-width="1" opacity="0.25098039215686274" d="M 135.5 29 L 137 29.5 L 129.5 34 L 131.5 31 L 135.5 29 Z " /><path fill="rgb(251,224,178)" stroke="rgb(251,224,178)" stroke-width="1" opacity="0.25098039215686274" d="M 48.5 30 L 50 30.5 L 38.5 37 L 40.5 34 L 48.5 30 Z " /><path fill="rgb(251,224,178)" stroke="rgb(251,224,178)" stroke-width="1" opacity="0.25098039215686274" d="M 127.5 34 L 124.5 38 L 127.5 34 Z " /><path fill="rgb(251,224,178)" stroke="rgb(251,224,178)" stroke-width="1" opacity="0.25098039215686274" d="M 203.5 34 L 204 108.5 L 203 108.5 L 203.5 34 Z " /><path fill="rgb(251,224,178)" stroke="rgb(251,224,178)" stroke-width="1" opacity="0.25098039215686274" d="M 100.5 35 L 101 56 L 61 55.5 L 100 55 L 100.5 35 Z " /><path fill="rgb(251,224,178)" stroke="rgb(251,224,178)" stroke-width="1" opacity="0.25098039215686274" d="M 192.5 35 L 193 56 L 159.5 56 L 158.5 57 L 159.5 55 L 192 55 L 192.5 35 Z " /><path fill="rgb(251,224,178)" stroke="rgb(251,224,178)" stroke-width="1" opacity="0.25098039215686274" d="M 317.5 35 L 315.5 38 L 312 40.5 L 308.5 46 L 308 44.5 L 315.5 36 L 317.5 35 Z " /><path fill="rgb(251,224,178)" stroke="rgb(251,224,178)" stroke-width="1" opacity="0.25098039215686274" d="M 36.5 37 L 28.5 46 L 36.5 37 Z " /><path fill="rgb(251,224,178)" stroke="rgb(251,224,178)" stroke-width="1" opacity="0.25098039215686274" d="M 123.5 39 L 122 41.5 L 119.5 48 L 119 45.5 L 123.5 39 Z " /><path fill="rgb(251,224,178)" stroke="rgb(251,224,178)" stroke-width="1" opacity="0.25098039215686274" d="M 27.5 47 L 26 49.5 L 23.5 54 L 23 52.5 L 27.5 47 Z " /><path fill="rgb(251,224,178)" stroke="rgb(251,224,178)" stroke-width="1" opacity="0.25098039215686274" d="M 118.5 49 L 119 59.5 L 118 59.5 L 118.5 49 Z " /><path fill="rgb(251,224,178)" stroke="rgb(251,224,178)" stroke-width="1" opacity="0.25098039215686274" d="M 306.5 50 L 307 58.5 L 306 58.5 L 306.5 50 Z " /><path fill="rgb(251,224,178)" stroke="rgb(251,224,178)" stroke-width="1" opacity="0.25098039215686274" d="M 22.5 55 L 23 56.5 L 21.5 59 L 21 57.5 L 22.5 55 Z " /><path fill="rgb(251,224,178)" stroke="rgb(251,224,178)" stroke-width="1" opacity="0.25098039215686274" d="M 231.5 55 L 278 55.5 L 231.5 56 L 231.5 55 Z " /><path fill="rgb(251,224,178)" stroke="rgb(251,224,178)" stroke-width="1" opacity="0.25098039215686274" d="M 343.5 55 L 364 55.5 L 343.5 56 L 343.5 55 Z " /><path fill="rgb(251,224,178)" stroke="rgb(251,224,178)" stroke-width="1" opacity="0.25098039215686274" d="M 58.5 56 L 60 56.5 L 52 61.5 L 48.5 69 L 48 66.5 L 53.5 59 L 58.5 56 Z " /><path fill="rgb(251,224,178)" stroke="rgb(251,224,178)" stroke-width="1" opacity="0.25098039215686274" d="M 20.5 60 L 21 62.5 L 20 62.5 L 20.5 60 Z " /><path fill="rgb(251,224,178)" stroke="rgb(251,224,178)" stroke-width="1" opacity="0.25098039215686274" d="M 236.5 60 L 237 63 L 267.5 63 L 269 64.5 L 269 79.5 L 267.5 81 L 237.5 81 L 237 83.5 L 236 83.5 L 236.5 80 L 268 80 L 268 64 L 236.5 64 L 236.5 60 Z " /><path fill="rgb(251,224,178)" stroke="rgb(251,224,178)" stroke-width="1" opacity="0.25098039215686274" d="M 344.5 60 L 345.5 62 L 344.5 60 Z " /><path fill="rgb(251,224,178)" stroke="rgb(251,224,178)" stroke-width="1" opacity="0.25098039215686274" d="M 156.5 61 L 158.5 64 L 176 76.5 L 179 80.5 L 175 77.5 Q 175.8 75.3 173.5 76 L 156 62.5 L 156.5 61 Z " /><path fill="rgb(251,224,178)" stroke="rgb(251,224,178)" stroke-width="1" opacity="0.25098039215686274" d="M 347.5 62 L 348.5 64 L 347.5 62 Z " /><path fill="rgb(251,224,178)" stroke="rgb(251,224,178)" stroke-width="1" opacity="0.25098039215686274" d="M 350.5 64 L 352.5 67 L 350.5 64 Z " /><path fill="rgb(251,224,178)" stroke="rgb(251,224,178)" stroke-width="1" opacity="0.25098039215686274" d="M 19.5 65 L 20 78.5 L 19 78.5 L 19.5 65 Z " /><path fill="rgb(251,224,178)" stroke="rgb(251,224,178)" stroke-width="1" opacity="0.25098039215686274" d="M 309.5 65 L 314.5 71 L 321 75.5 L 319.5 75 L 310 67.5 L 309.5 65 Z " /><path fill="rgb(251,224,178)" stroke="rgb(251,224,178)" stroke-width="1" opacity="0.25098039215686274" d="M 121.5 67 L 122.5 69 L 121.5 67 Z " /><path fill="rgb(251,224,178)" stroke="rgb(251,224,178)" stroke-width="1" opacity="0.25098039215686274" d="M 354.5 67 L 356.5 70 L 354.5 67 Z " /><path fill="rgb(251,224,178)" stroke="rgb(251,224,178)" stroke-width="1" opacity="0.25098039215686274" d="M 123.5 70 L 125.5 73 L 123.5 70 Z " /><path fill="rgb(251,224,178)" stroke="rgb(251,224,178)" stroke-width="1" opacity="0.25098039215686274" d="M 358.5 70 L 359.5 72 L 358.5 70 Z " /><path fill="rgb(251,224,178)" stroke="rgb(251,224,178)" stroke-width="1" opacity="0.25098039215686274" d="M 127.5 73 L 133 77.5 L 130.5 76 L 127.5 73 Z " /><path fill="rgb(251,224,178)" stroke="rgb(251,224,178)" stroke-width="1" opacity="0.25098039215686274" d="M 362.5 73 L 363.5 75 L 362.5 73 Z " /><path fill="rgb(251,224,178)" stroke="rgb(251,224,178)" stroke-width="1" opacity="0.25098039215686274" d="M 48.5 75 L 51 80.5 L 49 79.5 L 48.5 75 Z " /><path fill="rgb(251,224,178)" stroke="rgb(251,224,178)" stroke-width="1" opacity="0.25098039215686274" d="M 322.5 76 L 330 82.5 Q 330.8 87.3 327.5 88 L 329 85.5 L 329 82.5 L 324.5 78 L 322.5 76 Z " /><path fill="rgb(251,224,178)" stroke="rgb(251,224,178)" stroke-width="1" opacity="0.25098039215686274" d="M 365.5 77 L 366.5 79 L 365.5 77 Z " /><path fill="rgb(251,224,178)" stroke="rgb(251,224,178)" stroke-width="1" opacity="0.25098039215686274" d="M 134.5 78 L 140 82.5 L 137.5 81 L 134.5 78 Z " /><path fill="rgb(251,224,178)" stroke="rgb(251,224,178)" stroke-width="1" opacity="0.25098039215686274" d="M 51.5 82 L 53.5 85 L 51.5 82 Z " /><path fill="rgb(251,224,178)" stroke="rgb(251,224,178)" stroke-width="1" opacity="0.25098039215686274" d="M 55.5 85 L 60 87.5 L 58.5 88 L 55.5 85 Z " /><path fill="rgb(251,224,178)" stroke="rgb(251,224,178)" stroke-width="1" opacity="0.25098039215686274" d="M 369.5 85 L 370 90.5 L 369 90.5 L 369.5 85 Z " /><path fill="rgb(251,224,178)" stroke="rgb(251,224,178)" stroke-width="1" opacity="0.25098039215686274" d="M 181.5 87 L 182 94.5 L 181 94.5 L 181.5 87 Z " /><path fill="rgb(251,224,178)" stroke="rgb(251,224,178)" stroke-width="1" opacity="0.25098039215686274" d="M 62.5 88 L 101 88 L 101 108.5 L 100 108.5 L 100 89 L 62.5 89 L 62.5 88 Z " /><path fill="rgb(251,224,178)" stroke="rgb(251,224,178)" stroke-width="1" opacity="0.25098039215686274" d="M 119.5 88 L 143 88.5 L 119.5 89 L 119.5 88 Z " /><path fill="rgb(251,224,178)" stroke="rgb(251,224,178)" stroke-width="1" opacity="0.25098039215686274" d="M 231.5 88 L 278 88.5 L 231.5 89 L 231.5 88 Z " /><path fill="rgb(251,224,178)" stroke="rgb(251,224,178)" stroke-width="1" opacity="0.25098039215686274" d="M 295 88 L 326 88.5 L 296 89 L 295.5 109 L 295 88 Z " /><path fill="rgb(251,224,178)" stroke="rgb(251,224,178)" stroke-width="1" opacity="0.25098039215686274" d="M 24.5 92 L 37 106.5 L 27 97.5 L 24.5 92 Z " /><path fill="rgb(251,224,178)" stroke="rgb(251,224,178)" stroke-width="1" opacity="0.25098039215686274" d="M 369.5 92 L 370 96.5 L 369 96.5 L 369.5 92 Z " /><path fill="rgb(251,224,178)" stroke="rgb(251,224,178)" stroke-width="1" opacity="0.25098039215686274" d="M 180.5 97 L 181 98.5 L 177.5 103 L 179 100.5 L 180.5 97 Z " /><path fill="rgb(251,224,178)" stroke="rgb(251,224,178)" stroke-width="1" opacity="0.25098039215686274" d="M 184.5 98 L 185 99.5 L 182.5 103 L 183 101.5 L 184.5 98 Z " /><path fill="rgb(251,224,178)" stroke="rgb(251,224,178)" stroke-width="1" opacity="0.25098039215686274" d="M 367.5 101 L 367 102.5 L 358.5 112 L 356.5 113 L 357.5 111 L 366 103.5 L 367.5 101 Z " /><path fill="rgb(251,224,178)" stroke="rgb(251,224,178)" stroke-width="1" opacity="0.25098039215686274" d="M 181.5 104 L 175.5 111 L 181.5 104 Z " /><path fill="rgb(251,224,178)" stroke="rgb(251,224,178)" stroke-width="1" opacity="0.25098039215686274" d="M 38.5 107 L 50 113.5 L 48.5 114 L 40.5 110 L 38.5 107 Z " /><path fill="rgb(251,224,178)" stroke="rgb(251,224,178)" stroke-width="1" opacity="0.25098039215686274" d="M 173.5 111 L 172.5 113 L 166.5 116 L 163.5 116 L 163.5 115 L 166.5 115 L 173.5 111 Z " /><path fill="rgb(251,224,178)" stroke="rgb(251,224,178)" stroke-width="1" opacity="0.25098039215686274" d="M 51.5 114 L 54 114.5 L 51.5 115 L 51.5 114 Z " /><path fill="rgb(251,224,178)" stroke="rgb(251,224,178)" stroke-width="1" opacity="0.25098039215686274" d="M 107.5 114 L 108 116 L 162 116.5 L 108.5 117 L 107.5 114 Z " /><path fill="rgb(251,224,178)" stroke="rgb(251,224,178)" stroke-width="1" opacity="0.25098039215686274" d="M 55.5 115 L 58 115.5 L 55.5 116 L 55.5 115 Z " /><path fill="rgb(251,224,178)" stroke="rgb(251,224,178)" stroke-width="1" opacity="0.25098039215686274" d="M 347.5 115 L 350 115.5 L 347.5 116 L 347.5 115 Z " /><path fill="rgb(251,224,178)" stroke="rgb(251,224,178)" stroke-width="1" opacity="0.25098039215686274" d="M 61.5 116 L 104 116.5 L 61.5 117 L 61.5 116 Z " /><path fill="rgb(251,224,178)" stroke="rgb(251,224,178)" stroke-width="1" opacity="0.25098039215686274" d="M 291.5 116 L 346 116.5 L 291.5 117 L 291.5 116 Z " /></svg>