<svg width="54" height="59" viewBox="0 0 54 59" fill="none" xmlns="http://www.w3.org/2000/svg">
<g clip-path="url(#clip0_38_37)">
<path d="M38.6562 44.1524C40.0737 42.8289 42.3682 42.8324 43.7811 44.1601C45.194 45.4879 45.1903 47.6372 43.7729 48.9608L37.4786 54.8381C31.6717 60.2603 22.2025 60.3389 16.2977 55.0204C16.2635 54.9901 13.6342 52.5792 4.96035 44.6258C-0.810156 39.3349 -1.38504 30.8686 4.04516 25.4319L14.1697 15.2946C19.5591 9.89813 29.4937 9.30829 35.6556 13.9681L44.8512 20.9221C46.4084 22.0998 46.6516 24.237 45.3945 25.6958C44.1372 27.1545 41.8557 27.3823 40.2984 26.2047L31.103 19.2506C27.8804 16.8137 22.2431 17.1484 19.4624 19.9328L9.33768 30.0702C6.69413 32.7169 6.98368 36.9808 10.0301 39.7741C16.3995 45.6144 21.3083 50.1152 21.314 50.1203C24.384 52.8853 29.3478 52.844 32.362 50.0296L38.6562 44.1524Z" fill="#FFA116"/>
<path fill-rule="evenodd" clip-rule="evenodd" d="M23.3659 38.271C21.3646 38.271 19.7421 36.7511 19.7421 34.8764C19.7421 33.0016 21.3646 31.4818 23.3659 31.4818H50.0918C52.0932 31.4818 53.7156 33.0016 53.7156 34.8764C53.7156 36.7511 52.0932 38.271 50.0918 38.271H23.3659Z" fill="#B3B3B3"/>
<path fill-rule="evenodd" clip-rule="evenodd" d="M28.3709 1.07547C29.7383 -0.293576 32.0315 -0.365106 33.493 0.915707C34.9545 2.19652 35.0309 4.34466 33.6635 5.7137L9.3378 30.0703C6.69419 32.7168 6.98368 36.9807 10.03 39.7741L21.264 50.0751C22.6942 51.3866 22.7187 53.5359 21.3186 54.8753C19.9186 56.2153 17.6242 56.2382 16.194 54.9269L4.96001 44.6256C-0.810161 39.3345 -1.38504 30.8682 4.0454 25.4318L28.3709 1.07547Z" fill="black"/>
</g>
<defs>
<clipPath id="clip0_38_37">
<rect width="54" height="59" fill="white"/>
</clipPath>
</defs>
</svg>
